# xmcd
#
# Track frame offsets: 
#        150
#        27562
#        54317
#        90870
#        121485
#        152270
#
# Disc length: 2369 seconds
#
# Revision: 2
# Processed by: cddbd v1.5.2PL0 Copyright (c) Steve Scherf et al.
# Submitted via: ExactAudioCopy v0.95b4
#
DISCID=3a093f06
DTITLE=Dizzy Reece - Star Bright
DYEAR=1959
DGENRE=Jazz
TTITLE0=The Rake
TTITLE1=I'll Close My Eyes
TTITLE2=Groovesville
TTITLE3=The Rebound
TTITLE4=I Wished On The Moon
TTITLE5=A Variation On Monk
EXTD=YEAR: 1959
EXTT0=
EXTT1=
EXTT2=
EXTT3=
EXTT4=
EXTT5=
PLAYORDER=
